<svg width="120" height="48" viewBox="0 0 120 48" fill="none" xmlns="http://www.w3.org/2000/svg">
<g clip-path="url(#clip0_0_3)">
<rect width="120" height="48" fill="white"/>
<rect width="120" height="48" rx="8" fill="#D9D9DE" fill-opacity="0.933333"/>
<path d="M34.7267 36H20.2947V13.216H23.7507V32.896H34.7267V36ZM54.853 24.608C54.853 28.992 54.917 31.52 52.677 33.76C51.109 35.328 49.093 36.192 46.661 36.192C44.229 36.192 42.245 35.328 40.677 33.76C38.437 31.52 38.469 28.992 38.469 24.608C38.469 20.224 38.437 17.696 40.677 15.456C42.245 13.888 44.229 13.024 46.661 13.024C49.093 13.024 51.109 13.888 52.677 15.456C54.917 17.696 54.853 20.224 54.853 24.608ZM51.397 24.608C51.397 20.032 51.173 18.752 50.053 17.536C49.253 16.672 48.005 16.128 46.661 16.128C45.317 16.128 44.069 16.672 43.269 17.536C42.149 18.752 41.925 20.032 41.925 24.608C41.925 29.184 42.149 30.464 43.269 31.68C44.069 32.544 45.317 33.088 46.661 33.088C48.005 33.088 49.253 32.544 50.053 31.68C51.173 30.464 51.397 29.184 51.397 24.608ZM77.2685 27.168C77.2685 30.112 76.7245 32 75.2205 33.6C73.4925 35.424 71.3485 36.192 68.9485 36.192C66.5805 36.192 64.5325 35.328 62.9645 33.76C60.7245 31.52 60.7565 28.992 60.7565 24.608C60.7565 20.224 60.7245 17.696 62.9645 15.456C64.5325 13.888 66.5165 13.024 68.9485 13.024C73.7805 13.024 76.5965 16.192 77.2365 20.096H73.7485C73.1725 17.6 71.5085 16.128 68.9485 16.128C67.6045 16.128 66.3885 16.672 65.5885 17.536C64.4685 18.752 64.2125 20.032 64.2125 24.608C64.2125 29.184 64.4685 30.496 65.5885 31.712C66.3885 32.576 67.6045 33.088 68.9485 33.088C70.4525 33.088 71.7645 32.512 72.6605 31.488C73.4925 30.528 73.8125 29.376 73.8125 27.904V26.624H68.9485V23.68H77.2685V27.168ZM99.5217 24.608C99.5217 28.992 99.5857 31.52 97.3457 33.76C95.7777 35.328 93.7617 36.192 91.3297 36.192C88.8977 36.192 86.9137 35.328 85.3457 33.76C83.1057 31.52 83.1377 28.992 83.1377 24.608C83.1377 20.224 83.1057 17.696 85.3457 15.456C86.9137 13.888 88.8977 13.024 91.3297 13.024C93.7617 13.024 95.7777 13.888 97.3457 15.456C99.5857 17.696 99.5217 20.224 99.5217 24.608ZM96.0657 24.608C96.0657 20.032 95.8417 18.752 94.7217 17.536C93.9217 16.672 92.6737 16.128 91.3297 16.128C89.9857 16.128 88.7377 16.672 87.9377 17.536C86.8177 18.752 86.5937 20.032 86.5937 24.608C86.5937 29.184 86.8177 30.464 87.9377 31.68C88.7377 32.544 89.9857 33.088 91.3297 33.088C92.6737 33.088 93.9217 32.544 94.7217 31.68C95.8417 30.464 96.0657 29.184 96.0657 24.608Z" fill="#999999"/>
</g>
<defs>
<clipPath id="clip0_0_3">
<rect width="120" height="48" fill="white"/>
</clipPath>
</defs>
</svg>
